<?xml version="1.0" encoding="UTF-8" standalone="no"?>
<!DOCTYPE svg PUBLIC "-//W3C//DTD SVG 1.1//EN" "http://www.w3.org/Graphics/SVG/1.1/DTD/svg11.dtd">
<svg width="100%" height="100%" viewBox="0 0 362 362" version="1.1" xmlns="http://www.w3.org/2000/svg" xmlns:xlink="http://www.w3.org/1999/xlink" xml:space="preserve" style="fill-rule:evenodd;clip-rule:evenodd;stroke-linejoin:round;stroke-miterlimit:1.41421;">
    <g transform="matrix(1,0,0,1,-720.205,-805.159)">
        <g transform="matrix(0.258046,0,0,0.258046,736.168,813.865)">
            <g transform="matrix(1.0702,-1.0702,1.0702,1.0702,-1544.77,1097.84)">
                <circle cx="1221.5" cy="819.5" r="463.5" style="fill:rgb(217,229,232);"/>
            </g>
            <g transform="matrix(0.993916,-0.993916,0.993916,0.993916,-1389.08,1065.05)">
                <circle cx="1221.5" cy="819.5" r="463.5" style="fill:url(#_Linear1);"/>
            </g>
            <g transform="matrix(0.707107,-0.707107,0.707107,0.707107,-573.188,833.791)">
                <path d="M519.361,1202.51L1024,1202.51L1024,1255.25L579.881,1255.25C558.634,1238.91 538.422,1221.3 519.361,1202.51ZM1024,1255.25L1024,1202.51C1150.77,1202.51 1253.68,1099.6 1253.68,972.832C1253.68,846.068 1150.77,743.152 1024,743.151L1024,690.415C1179.87,690.416 1306.42,816.962 1306.42,972.832C1306.42,1128.7 1179.87,1255.25 1024,1255.25ZM451.973,1124.8L1024,1124.8L1024,1177.53L495.312,1177.53C479.975,1160.74 465.505,1143.13 451.973,1124.8ZM1024,1124.8C1107.87,1124.8 1175.96,1056.7 1175.96,972.832C1175.96,888.961 1107.87,820.869 1024,820.868L1024,768.132C1136.98,768.132 1228.7,859.855 1228.7,972.832C1228.7,1085.81 1136.98,1177.53 1024,1177.53L1024,1124.8ZM402.676,1047.08L1024,1047.08L1024,1099.82L434.423,1099.82C423.043,1082.79 412.443,1065.19 402.676,1047.08ZM1024,1099.82L1024,1047.08C1064.98,1047.08 1098.25,1013.81 1098.25,972.832C1098.25,931.855 1064.98,898.586 1024,898.585L1024,845.849C1094.09,845.849 1150.98,902.749 1150.98,972.832C1150.98,1042.92 1094.09,1099.82 1024,1099.82ZM1024,333.75L1024,386.486C897.235,386.487 794.319,489.404 794.319,616.168C794.319,742.932 897.235,845.848 1024,845.849L1024,898.585C868.129,898.584 741.582,772.038 741.582,616.168C741.582,460.297 868.129,333.751 1024,333.75ZM1024,464.203C940.128,464.204 872.036,532.297 872.036,616.168C872.036,700.039 940.128,768.131 1024,768.132L1024,820.868C911.023,820.868 819.299,729.145 819.299,616.168C819.299,503.19 911.023,411.467 1024,411.467L1024,464.203ZM1024,489.184L1024,541.92C983.021,541.921 949.753,575.19 949.753,616.168C949.753,657.145 983.021,690.414 1024,690.415L1024,743.151C953.915,743.151 897.016,686.251 897.016,616.168C897.016,546.084 953.915,489.184 1024,489.184ZM1578.52,489.184C1585.66,506.403 1592.09,523.994 1597.77,541.92L1024,541.92L1024,489.184L1578.52,489.184ZM1539.98,411.467C1549.93,428.568 1559.13,446.162 1567.53,464.203L1024,464.203L1024,411.467L1539.98,411.467ZM1486.89,333.75C1500.33,350.667 1512.95,368.266 1524.68,386.486L1024,386.486L1024,333.75L1486.89,333.75Z" style="fill:rgb(217,229,232);"/>
            </g>
        </g>
    </g>
    <defs>
        <linearGradient id="_Linear1" x1="0" y1="0" x2="1" y2="0" gradientUnits="userSpaceOnUse" gradientTransform="matrix(927,2.05835e-13,-2.05835e-13,927,758,819.5)"><stop offset="0%" style="stop-color:rgb(247,114,139);stop-opacity:1"/><stop offset="100%" style="stop-color:rgb(253,138,128);stop-opacity:1"/></linearGradient>
    </defs>
</svg>
