<?xml version="1.0" encoding="UTF-8" standalone="no"?><!DOCTYPE svg PUBLIC "-//W3C//DTD SVG 1.1//EN" "http://www.w3.org/Graphics/SVG/1.1/DTD/svg11.dtd"><svg width="100%" height="100%" viewBox="0 0 27 27" version="1.1" xmlns="http://www.w3.org/2000/svg" xmlns:xlink="http://www.w3.org/1999/xlink" xml:space="preserve" style="fill-rule:evenodd;clip-rule:evenodd;stroke-linejoin:round;stroke-miterlimit:1.41421;"><g><path d="M3.881,3.881c5.174,-5.175 13.575,-5.175 18.75,0c5.174,5.174 5.174,13.575 0,18.75c-5.175,5.174 -13.576,5.174 -18.75,0c-5.175,-5.175 -5.175,-13.576 0,-18.75Z" style="fill:#d9e5e8;"/><path d="M4.549,4.509c4.805,-4.806 12.608,-4.806 17.413,0c4.806,4.805 4.806,12.608 0,17.413c-4.805,4.806 -12.608,4.806 -17.413,0c-4.806,-4.805 -4.806,-12.608 0,-17.413Z" style="fill:url(#_Linear1);"/><path d="M13.348,25.526l6.744,-6.744l0.704,0.705l-5.935,5.935c-0.502,0.066 -1.008,0.1 -1.513,0.104Zm7.448,-6.039l-0.704,-0.705c1.694,-1.694 1.694,-4.445 0,-6.139c-1.694,-1.694 -4.445,-1.694 -6.139,0l-0.705,-0.705c2.083,-2.083 5.465,-2.083 7.548,0c2.083,2.083 2.084,5.466 0,7.549Zm-9.388,5.901l7.645,-7.645l0.705,0.705l-7.066,7.066c-0.429,-0.02 -0.858,-0.062 -1.284,-0.126Zm7.645,-7.645c1.121,-1.121 1.121,-2.941 0,-4.062c-1.121,-1.12 -2.941,-1.12 -4.062,0l-0.705,-0.704c1.51,-1.51 3.962,-1.51 5.472,0c1.51,1.51 1.51,3.961 0,5.471l-0.705,-0.705Zm-9.342,7.265l8.303,-8.303l0.705,0.704l-7.879,7.88c-0.38,-0.076 -0.757,-0.169 -1.129,-0.281Zm9.008,-7.599l-0.705,-0.704c0.548,-0.548 0.548,-1.437 0,-1.985c-0.547,-0.548 -1.436,-0.548 -1.984,0l-0.705,-0.705c0.937,-0.936 2.458,-0.936 3.394,0c0.937,0.937 0.937,2.458 0,3.394Zm-10.238,-10.237l0.705,0.704c-1.694,1.694 -1.694,4.445 0,6.139c1.694,1.694 4.445,1.694 6.139,0l0.705,0.705c-2.083,2.083 -5.466,2.083 -7.549,0c-2.083,-2.083 -2.083,-5.465 0,-7.548Zm1.744,1.743c-1.121,1.121 -1.121,2.941 0,4.062c1.121,1.121 2.941,1.121 4.061,0l0.705,0.704c-1.51,1.51 -3.961,1.51 -5.471,0c-1.51,-1.509 -1.51,-3.961 0,-5.471l0.705,0.705Zm0.334,0.334l0.704,0.705c-0.547,0.547 -0.547,1.436 0,1.984c0.548,0.548 1.437,0.548 1.985,0l0.705,0.705c-0.937,0.936 -2.458,0.936 -3.394,0c-0.937,-0.937 -0.937,-2.458 0,-3.394Zm7.41,-7.411c0.326,0.135 0.647,0.284 0.962,0.448l-7.668,7.668l-0.704,-0.705l7.41,-7.411Zm-1.553,-0.524c0.361,0.096 0.719,0.208 1.073,0.337l-7.264,7.264l-0.705,-0.705l6.896,-6.896Zm-1.748,-0.329c0.405,0.047 0.809,0.113 1.209,0.2l-6.691,6.691l-0.705,-0.704l6.187,-6.187Z" style="fill:#d9e5e8;"/></g><defs><linearGradient id="_Linear1" x1="0" y1="0" x2="1" y2="0" gradientUnits="userSpaceOnUse" gradientTransform="matrix(17.4136,-17.4136,17.4136,17.4136,4.54886,21.9223)"><stop offset="0%" style="stop-color:#f7728b;stop-opacity:1"/><stop offset="100%" style="stop-color:#fd8a80;stop-opacity:1"/></linearGradient></defs></svg>