<?xml version="1.0" encoding="UTF-8" standalone="no"?><!DOCTYPE svg PUBLIC "-//W3C//DTD SVG 1.1//EN" "http://www.w3.org/Graphics/SVG/1.1/DTD/svg11.dtd"><svg width="100%" height="100%" viewBox="0 0 90 99" version="1.1" xmlns="http://www.w3.org/2000/svg" xmlns:xlink="http://www.w3.org/1999/xlink" xml:space="preserve" style="fill-rule:evenodd;clip-rule:evenodd;stroke-linejoin:round;stroke-miterlimit:1.41421;"><g><clipPath id="_clip1"><rect x="0.001" y="-0.621" width="90" height="100"/></clipPath><g clip-path="url(#_clip1)"><path d="M12.372,32.912c-0.57,0 -1.078,-0.406 -1.18,-0.988c-0.023,-0.117 -2.175,-12.012 -3.593,-20.59c-1.371,-8.281 0.867,-10.156 1.89,-10.574c4.766,-2.996 10.211,3.445 15.024,9.133l0.34,0.402c2.324,2.742 3.476,4.012 4.031,4.594c11.449,-6 16.355,0.508 16.562,0.793c0.391,0.535 0.27,1.285 -0.265,1.676c-0.535,0.386 -1.282,0.269 -1.672,-0.262c-0.18,-0.235 -4.184,-5.289 -14.223,0.305c-0.996,0.5 -1.097,0.55 -6.262,-5.555l-0.339,-0.402c-4,-4.731 -8.973,-10.614 -11.996,-8.606c-0.071,0.051 -0.145,0.09 -0.223,0.121c-0.141,0.113 -1.578,1.473 -0.5,7.985c1.414,8.562 3.566,20.433 3.586,20.554c0.117,0.653 -0.317,1.278 -0.965,1.395c-0.074,0.011 -0.145,0.019 -0.215,0.019Z" style="fill:#f2f2f2;fill-rule:nonzero;"/><path d="M44.435,98.377c-8.278,0 -14.012,-8.375 -14.25,-8.73c-11.106,-16.731 -29.118,-26.051 -29.301,-26.145c-0.469,-0.242 -0.731,-0.762 -0.633,-1.281c0.581,-3.207 1.617,-7.09 2.207,-9.207l-1.246,0.012c-0.367,-0.008 -0.734,-0.172 -0.965,-0.473c-0.226,-0.301 -0.305,-0.688 -0.204,-1.051c2.599,-9.293 10.646,-19.598 11.353,-20.492c0.417,-0.641 4.031,-6.066 9.992,-10.777c-2.035,-3.332 -6.215,-9.914 -8.055,-11.68c-1.594,-1.531 -2.301,-1.508 -2.426,-1.488c-0.222,0.035 -0.422,0.328 -0.551,0.566c-0.203,0.453 -0.437,1.055 -0.48,1.258c-0.031,0.633 -0.555,1.137 -1.199,1.137c-0.66,0 -1.199,-0.536 -1.199,-1.2c0,-0.449 0.246,-1.211 0.73,-2.261c0.727,-1.368 1.66,-1.766 2.32,-1.871c1.301,-0.204 2.762,0.492 4.469,2.128c2.672,2.567 8.742,12.661 9,13.086c0.316,0.528 0.184,1.211 -0.308,1.578c-6.364,4.774 -10.27,10.813 -10.305,10.872c-0.024,0.035 -0.051,0.07 -0.074,0.101c-0.079,0.102 -7.516,9.496 -10.473,18.152l1.207,-0.011c0.379,-0.02 0.742,0.176 0.969,0.48c0.23,0.305 0.3,0.696 0.191,1.063c-0.015,0.054 -1.57,5.332 -2.43,9.648c3.715,2.031 19.165,11.094 29.407,26.524c0.047,0.07 5.265,7.664 12.254,7.664c0.664,0 1.199,0.539 1.199,1.199c0,0.664 -0.535,1.199 -1.199,1.199Z" style="fill:#f2f2f2;fill-rule:nonzero;"/><path d="M44.442,85.326c-2.597,0 -4.683,-0.734 -6.031,-2.129c-1.23,-1.273 -1.82,-3.031 -1.746,-5.218c0.152,-4.477 5.301,-4.477 7.777,-4.477c0.661,0 1.2,0.539 1.2,1.203c0,0.66 -0.539,1.199 -1.2,1.199c-4.898,0 -5.339,1.02 -5.379,2.153c-0.05,1.515 0.313,2.683 1.075,3.472c1.117,1.157 2.957,1.399 4.304,1.399c0.661,0 1.2,0.535 1.2,1.199c0,0.664 -0.539,1.199 -1.2,1.199Z" style="fill:#f2f2f2;fill-rule:nonzero;"/><path d="M30.462,52.19c-2.348,0 -4.254,-1.911 -4.254,-4.254c0,-2.344 1.906,-4.254 4.254,-4.254c2.344,0 4.254,1.906 4.254,4.254c0,2.347 -1.91,4.254 -4.254,4.254Zm0,-6.11c-1.023,0 -1.856,0.832 -1.856,1.856c0,1.023 0.833,1.855 1.856,1.855c1.019,0 1.851,-0.832 1.851,-1.855c0,-1.024 -0.828,-1.856 -1.851,-1.856Z" style="fill:#f2f2f2;fill-rule:nonzero;"/><path d="M39.833,88.338c-0.941,0 -1.672,-0.102 -1.883,-0.133c-7.168,-1.508 -8.742,-6.922 -7.851,-11.511c0.062,-0.665 0.601,-5.403 4.172,-19.118c0.168,-0.64 0.82,-1.027 1.464,-0.859c0.641,0.164 1.024,0.82 0.86,1.461c-3.715,14.273 -4.107,18.734 -4.11,18.777c-0.004,0.047 -0.007,0.098 -0.019,0.145c-0.435,2.164 -0.723,7.347 5.914,8.746c1.355,0.199 4.445,0.187 4.926,-1.223c0.215,-0.629 0.894,-0.965 1.523,-0.75c0.625,0.215 0.961,0.899 0.746,1.524c-0.851,2.492 -3.758,2.941 -5.742,2.941Z" style="fill:#f2f2f2;fill-rule:nonzero;"/><path d="M1.981,61.287c-0.238,0 -0.484,-0.074 -0.695,-0.226c-0.539,-0.383 -0.664,-1.133 -0.277,-1.672c14.039,-19.602 29.535,-15.828 30.672,-15.52c2.261,0.489 6.363,2.832 5.949,8.301c-0.051,0.66 -0.617,1.152 -1.289,1.106c-0.66,-0.051 -1.156,-0.629 -1.106,-1.29c0.356,-4.664 -3.636,-5.675 -4.089,-5.777c-0.028,-0.004 -0.059,-0.012 -0.083,-0.019c-0.597,-0.164 -14.864,-3.891 -28.105,14.597c-0.234,0.324 -0.602,0.5 -0.977,0.5Z" style="fill:#f2f2f2;fill-rule:nonzero;"/><path d="M36.646,52.932c-0.102,0 -0.211,-0.012 -0.317,-0.043c-0.582,-0.16 -0.957,-0.731 -0.871,-1.328c0.383,-2.614 -2.617,-4.653 -2.645,-4.672c-0.55,-0.371 -0.703,-1.113 -0.335,-1.664c0.367,-0.551 1.109,-0.703 1.66,-0.336c0.09,0.058 1.234,0.824 2.234,2.121c0.02,-1.121 -0.141,-2.32 -0.668,-3.391c-0.75,-1.523 -2.168,-2.586 -4.223,-3.156c-0.234,-0.059 -6.804,-1.543 -8.531,4.555c-0.179,0.636 -0.844,1.008 -1.48,0.828c-0.637,-0.18 -1.008,-0.844 -0.828,-1.481c1.886,-6.668 8.312,-6.988 11.449,-6.226c2.781,0.777 4.711,2.265 5.773,4.433c2.059,4.211 -0.019,9.395 -0.109,9.618c-0.188,0.457 -0.633,0.742 -1.109,0.742Z" style="fill:#f2f2f2;fill-rule:nonzero;"/><path d="M44.501,34.225c-0.664,0 -1.199,-0.539 -1.199,-1.199l0,-16.571c0,-0.664 0.535,-1.199 1.199,-1.199c0.664,0 1.199,0.535 1.199,1.199l0,16.571c0,0.66 -0.535,1.199 -1.199,1.199Z" style="fill:#f2f2f2;fill-rule:nonzero;"/><path d="M33.052,67.776c-0.496,0 -0.961,-0.309 -1.133,-0.805c-1.707,-4.863 -3.895,-6.485 -7.516,-9.172l-1.047,-0.777c-4.667,-3.5 -4.636,-10.446 -4.632,-10.739c0.007,-0.664 0.574,-1.172 1.215,-1.187c0.66,0.008 1.191,0.551 1.183,1.215c0,0.058 -0.008,6.031 3.676,8.793l1.035,0.769c3.715,2.754 6.398,4.746 8.352,10.305c0.218,0.629 -0.114,1.312 -0.739,1.531c-0.129,0.047 -0.265,0.067 -0.394,0.067Z" style="fill:#f2f2f2;fill-rule:nonzero;"/><path d="M44.368,93.147c-0.953,0 -6.035,-0.129 -8.797,-2.832c-1.199,-1.172 -1.804,-2.645 -1.804,-4.375c0,-0.664 0.535,-1.2 1.199,-1.2c0.664,0 1.199,0.536 1.199,1.2c0,1.074 0.356,1.945 1.082,2.656c2.262,2.223 7.168,2.152 7.219,2.152l0.027,0c0.649,0 1.184,0.52 1.199,1.176c0.012,0.66 -0.511,1.207 -1.171,1.223c-0.02,0 -0.071,0 -0.153,0Z" style="fill:#f2f2f2;fill-rule:nonzero;"/><path d="M44.606,85.326c-2.597,0 -4.679,-0.734 -6.027,-2.129c-1.234,-1.273 -1.82,-3.031 -1.75,-5.218c0.152,-4.477 5.301,-4.477 7.777,-4.477c0.665,0 1.2,0.539 1.2,1.203c0,0.66 -0.535,1.199 -1.2,1.199c-4.898,0 -5.339,1.02 -5.378,2.153c-0.047,1.515 0.312,2.683 1.074,3.472c1.117,1.157 2.957,1.399 4.304,1.399c0.661,0 1.2,0.535 1.2,1.199c0,0.664 -0.535,1.199 -1.2,1.199Z" style="fill:#f2f2f2;fill-rule:nonzero;"/><path d="M76.79,32.912c-0.07,0 -0.141,-0.008 -0.215,-0.019c-0.652,-0.117 -1.086,-0.742 -0.965,-1.395c0.02,-0.121 2.172,-11.992 3.586,-20.554c1.075,-6.512 -0.359,-7.872 -0.5,-7.985c-0.078,-0.031 -0.156,-0.07 -0.226,-0.117c-3.016,-2.012 -7.992,3.875 -11.992,8.602l-0.336,0.402c-5.168,6.105 -5.27,6.055 -6.219,5.578c-10.215,-5.688 -14.227,-0.387 -14.266,-0.332c-0.39,0.535 -1.14,0.652 -1.676,0.266c-0.535,-0.391 -0.656,-1.141 -0.265,-1.676c0.207,-0.285 5.101,-6.781 16.562,-0.793c0.555,-0.582 1.707,-1.852 4.032,-4.594l0.339,-0.402c4.809,-5.688 10.258,-12.129 15.024,-9.133c1.023,0.418 3.258,2.293 1.89,10.574c-1.417,8.578 -3.57,20.473 -3.589,20.59c-0.11,0.582 -0.614,0.988 -1.184,0.988Z" style="fill:#f2f2f2;fill-rule:nonzero;"/><path d="M44.728,98.377c-0.665,0 -1.204,-0.535 -1.204,-1.199c0,-0.66 0.539,-1.199 1.204,-1.199c7.011,0 12.207,-7.594 12.257,-7.672c10.239,-15.422 25.688,-24.485 29.403,-26.516c-0.864,-4.32 -2.414,-9.594 -2.43,-9.648c-0.109,-0.367 -0.039,-0.758 0.191,-1.063c0.227,-0.304 0.567,-0.504 0.969,-0.48l1.207,0.011c-2.957,-8.656 -10.394,-18.05 -10.472,-18.152c-0.028,-0.031 -0.051,-0.066 -0.075,-0.101c-0.039,-0.059 -3.941,-6.098 -10.304,-10.872c-0.493,-0.367 -0.625,-1.05 -0.309,-1.578c0.257,-0.425 6.328,-10.519 9,-13.086c1.707,-1.636 3.164,-2.336 4.469,-2.128c0.66,0.105 1.594,0.503 2.289,1.808c0.516,1.113 0.762,1.875 0.762,2.324c0,0.664 -0.539,1.2 -1.204,1.2c-0.64,0 -1.164,-0.504 -1.195,-1.137c-0.043,-0.203 -0.281,-0.817 -0.512,-1.32c-0.097,-0.176 -0.296,-0.469 -0.519,-0.504c-0.125,-0.02 -0.832,-0.039 -2.43,1.488c-1.84,1.766 -6.015,8.351 -8.051,11.68c5.957,4.714 9.575,10.136 9.993,10.777c0.703,0.894 8.754,11.199 11.347,20.492c0.102,0.363 0.028,0.754 -0.199,1.051c-0.23,0.301 -0.574,0.461 -0.965,0.473l-1.25,-0.012c0.594,2.117 1.629,6 2.211,9.207c0.094,0.519 -0.164,1.043 -0.637,1.281c-0.179,0.094 -18.191,9.414 -29.293,26.141c-0.242,0.363 -5.976,8.734 -14.253,8.734Z" style="fill:#f2f2f2;fill-rule:nonzero;"/><path d="M44.72,85.326c-0.66,0 -1.199,-0.535 -1.199,-1.199c0,-0.664 0.539,-1.199 1.199,-1.199c1.347,0 3.187,-0.242 4.304,-1.399c0.762,-0.789 1.125,-1.957 1.075,-3.472c-0.039,-1.133 -0.481,-2.153 -5.379,-2.153c-0.66,0 -1.199,-0.539 -1.199,-1.199c0,-0.664 0.539,-1.203 1.199,-1.203c2.476,0 7.625,0 7.777,4.477c0.07,2.187 -0.516,3.945 -1.746,5.218c-1.348,1.395 -3.434,2.129 -6.031,2.129Z" style="fill:#f2f2f2;fill-rule:nonzero;"/><path d="M58.7,52.19c-2.344,0 -4.254,-1.911 -4.254,-4.254c0,-2.344 1.91,-4.254 4.254,-4.254c2.348,0 4.254,1.906 4.254,4.254c0,2.347 -1.906,4.254 -4.254,4.254Zm0,-6.11c-1.019,0 -1.851,0.832 -1.851,1.856c0,1.023 0.832,1.855 1.851,1.855c1.024,0 1.856,-0.832 1.856,-1.855c0,-1.024 -0.832,-1.856 -1.856,-1.856Z" style="fill:#f2f2f2;fill-rule:nonzero;"/><path d="M49.321,88.334c-2,0 -4.886,-0.457 -5.734,-2.937c-0.215,-0.629 0.121,-1.309 0.746,-1.524c0.629,-0.215 1.309,0.121 1.523,0.746c0.536,1.563 4.075,1.356 4.993,1.215c6.57,-1.387 6.281,-6.57 5.847,-8.734c-0.007,-0.051 -0.015,-0.098 -0.019,-0.145c-0.004,-0.043 -0.395,-4.504 -4.106,-18.777c-0.168,-0.641 0.215,-1.293 0.86,-1.461c0.64,-0.168 1.297,0.215 1.461,0.859c3.57,13.715 4.109,18.453 4.171,19.118c0.895,4.589 -0.683,10.003 -7.785,11.5c-0.234,0.035 -0.992,0.14 -1.957,0.14Z" style="fill:#f2f2f2;fill-rule:nonzero;"/><path d="M87.181,61.287c-0.375,0 -0.742,-0.176 -0.981,-0.5c-13.293,-18.566 -27.953,-14.636 -28.101,-14.597c-0.032,0.007 -0.059,0.015 -0.086,0.019c-0.45,0.102 -4.442,1.11 -4.086,5.777c0.051,0.661 -0.446,1.239 -1.106,1.286c-0.664,0.05 -1.238,-0.442 -1.289,-1.106c-0.414,-5.465 3.688,-7.808 5.953,-8.297c1.133,-0.308 16.629,-4.086 30.668,15.516c0.387,0.539 0.262,1.289 -0.277,1.676c-0.211,0.152 -0.457,0.226 -0.695,0.226Z" style="fill:#f2f2f2;fill-rule:nonzero;"/><path d="M52.517,52.932c-0.477,0 -0.926,-0.285 -1.114,-0.746c-0.09,-0.219 -2.164,-5.403 -0.105,-9.614c1.062,-2.168 2.992,-3.656 5.734,-4.421c3.176,-0.774 9.602,-0.454 11.489,6.214c0.179,0.637 -0.192,1.301 -0.829,1.481c-0.636,0.18 -1.3,-0.192 -1.48,-0.828c-1.738,-6.137 -8.293,-4.614 -8.57,-4.547c-2.016,0.562 -3.434,1.625 -4.184,3.148c-0.527,1.071 -0.687,2.27 -0.668,3.391c1,-1.297 2.145,-2.063 2.234,-2.121c0.551,-0.367 1.297,-0.215 1.661,0.34c0.367,0.55 0.214,1.293 -0.336,1.66c-0.039,0.023 -3.028,2.062 -2.649,4.672c0.09,0.597 -0.285,1.172 -0.871,1.332c-0.105,0.027 -0.211,0.039 -0.312,0.039Z" style="fill:#f2f2f2;fill-rule:nonzero;"/><path d="M44.661,34.225c-0.664,0 -1.199,-0.539 -1.199,-1.199l0,-16.571c0,-0.664 0.535,-1.199 1.199,-1.199c0.664,0 1.199,0.535 1.199,1.199l0,16.571c0,0.66 -0.535,1.199 -1.199,1.199Z" style="fill:#f2f2f2;fill-rule:nonzero;"/><path d="M56.114,67.776c-0.133,0 -0.265,-0.02 -0.398,-0.067c-0.625,-0.219 -0.953,-0.906 -0.735,-1.531c1.95,-5.559 4.633,-7.551 8.348,-10.309l1.035,-0.769c3.688,-2.762 3.68,-8.731 3.676,-8.793c-0.004,-0.66 0.527,-1.203 1.188,-1.211l0.015,0c0.656,0 1.192,0.527 1.199,1.187c0.004,0.293 0.032,7.239 -4.636,10.739l-1.043,0.777c-3.625,2.687 -5.813,4.309 -7.516,9.172c-0.176,0.496 -0.641,0.805 -1.133,0.805Z" style="fill:#f2f2f2;fill-rule:nonzero;"/><path d="M44.794,93.147c-0.082,0 -0.133,0 -0.148,0c-0.665,-0.016 -1.188,-0.563 -1.176,-1.223c0.015,-0.656 0.551,-1.176 1.203,-1.176c0.012,0 -0.055,0 0.09,0c0.601,0 5.035,-0.074 7.152,-2.152c0.727,-0.711 1.082,-1.582 1.082,-2.656c0,-0.664 0.535,-1.2 1.199,-1.2c0.664,0 1.2,0.536 1.2,1.2c0,1.73 -0.606,3.203 -1.805,4.375c-2.762,2.703 -7.844,2.832 -8.797,2.832Z" style="fill:#f2f2f2;fill-rule:nonzero;"/><path d="M44.556,85.326c-0.664,0 -1.2,-0.535 -1.2,-1.199c0,-0.664 0.536,-1.199 1.2,-1.199c1.347,0 3.187,-0.242 4.304,-1.399c0.762,-0.789 1.121,-1.957 1.071,-3.472c-0.035,-1.133 -0.477,-2.153 -5.375,-2.153c-0.664,0 -1.2,-0.535 -1.2,-1.199c0,-0.664 0.536,-1.199 1.2,-1.199c2.472,0 7.625,0 7.773,4.473c0.074,2.191 -0.512,3.945 -1.746,5.218c-1.348,1.395 -3.43,2.129 -6.027,2.129Z" style="fill:#f2f2f2;fill-rule:nonzero;"/></g></g></svg>